{
  "accessors": [
    {
      "bufferView": 2,
      "componentType": 5126,
      "count": 533,
      "max": [
        0.6266137957572937,
        0.5836037397384644,
        0.6434414982795715
      ],
      "min": [
        -0.6266137957572937,
        -0.6467690467834473,
        -0.27975893020629883
      ],
      "type": "VEC3"
    },
    {
      "bufferView": 2,
      "byteOffset": 6396,
      "componentType": 5126,
      "count": 533,
      "max": [
        0.9991497993469238,
        0.993225634098053,
        0.9954289197921753
      ],
      "min": [
        -0.9991497993469238,
        -0.9987659454345703,
        -0.9992276430130005
      ],
      "type": "VEC3"
    },
    {
      "bufferView": 1,
      "componentType": 5126,
      "count": 533,
      "max": [
        0.9979855418205261,
        0.8265563249588013
      ],
      "min": [
        0.002014512661844492,
        0.002014505211263895
      ],
      "type": "VEC2"
    },
    {
      "bufferView": 0,
      "componentType": 5125,
      "count": 2496,
      "type": "SCALAR"
    },
    {
      "bufferView": 2,
      "byteOffset": 12792,
      "componentType": 5126,
      "count": 533,
      "max": [
        0.6465969681739807,
        0.6034673452377319,
        0.6633499264717102
      ],
      "min": [
        -0.6465969681739807,
        -0.6667441129684448,
        -0.2997434735298157
      ],
      "type": "VEC3"
    },
    {
      "bufferView": 2,
      "byteOffset": 19188,
      "componentType": 5126,
      "count": 533,
      "max": [
        0.9991678595542908,
        0.998741865158081,
        0.9992276430130005
      ],
      "min": [
        -0.9991678595542908,
        -0.9931407570838928,
        -0.995413064956665
      ],
      "type": "VEC3"
    },
    {
      "bufferView": 1,
      "byteOffset": 4264,
      "componentType": 5126,
      "count": 533,
      "max": [
        0.9979855418205261,
        0.8265563249588013
      ],
      "min": [
        0.002014512661844492,
        0.002014505211263895
      ],
      "type": "VEC2"
    },
    {
      "bufferView": 0,
      "byteOffset": 9984,
      "componentType": 5125,
      "count": 2496,
      "type": "SCALAR"
    },
    {
      "bufferView": 2,
      "byteOffset": 25584,
      "componentType": 5126,
      "count": 620,
      "max": [
        0.7323139309883118,
        -0.0355505533516407,
        0.09052082896232605
      ],
      "min": [
        -0.08384175598621368,
        -0.18087415397167206,
        -0.16108593344688416
      ],
      "type": "VEC3"
    },
    {
      "bufferView": 2,
      "byteOffset": 33024,
      "componentType": 5126,
      "count": 620,
      "max": [
        0.9989539980888367,
        0.99309241771698,
        0.9820400476455688
      ],
      "min": [
        -0.9989539980888367,
        -0.9951293468475342,
        -0.9994352459907532
      ],
      "type": "VEC3"
    },
    {
      "bufferView": 1,
      "byteOffset": 8528,
      "componentType": 5126,
      "count": 620,
      "max": [
        0.9978631734848022,
        0.9521206021308899
      ],
      "min": [
        0.002136817667633295,
        0.0021368262823671103
      ],
      "type": "VEC2"
    },
    {
      "bufferView": 0,
      "byteOffset": 19968,
      "componentType": 5125,
      "count": 2688,
      "type": "SCALAR"
    },
    {
      "bufferView": 2,
      "byteOffset": 40464,
      "componentType": 5126,
      "count": 620,
      "max": [
        0.7522932887077332,
        -0.015911217778921127,
        0.1101623922586441
      ],
      "min": [
        -0.10382112860679626,
        -0.2007756382226944,
        -0.18107396364212036
      ],
      "type": "VEC3"
    },
    {
      "bufferView": 2,
      "byteOffset": 47904,
      "componentType": 5126,
      "count": 620,
      "max": [
        0.9989860653877258,
        0.9950343370437622,
        0.9993723034858704
      ],
      "min": [
        -0.9989860653877258,
        -0.9931502938270569,
        -0.9820823073387146
      ],
      "type": "VEC3"
    },
    {
      "bufferView": 1,
      "byteOffset": 13488,
      "componentType": 5126,
      "count": 620,
      "max": [
        0.9978631734848022,
        0.9521206021308899
      ],
      "min": [
        0.002136817667633295,
        0.0021368262823671103
      ],
      "type": "VEC2"
    },
    {
      "bufferView": 0,
      "byteOffset": 30720,
      "componentType": 5125,
      "count": 2688,
      "type": "SCALAR"
    }
  ],
  "asset": {
    "extras": {
      "author": "LinjieFan (https://sketchfab.com/LinjieFan)",
      "license": "CC-BY-4.0 (http://creativecommons.org/licenses/by/4.0/)",
      "source": "https://sketchfab.com/3d-models/fire-slime-b236eb657bd841fdb562685a453a0cde",
      "title": "Fire slime"
    },
    "generator": "Sketchfab-15.62.0",
    "version": "2.0"
  },
  "bufferViews": [
    {
      "buffer": 0,
      "byteLength": 41472,
      "name": "floatBufferViews",
      "target": 34963
    },
    {
      "buffer": 0,
      "byteLength": 18448,
      "byteOffset": 41472,
      "byteStride": 8,
      "name": "floatBufferViews",
      "target": 34962
    },
    {
      "buffer": 0,
      "byteLength": 55344,
      "byteOffset": 59920,
      "byteStride": 12,
      "name": "floatBufferViews",
      "target": 34962
    }
  ],
  "buffers": [
    {
      "byteLength": 115264,
      "uri": "scene.bin"
    }
  ],
  "extensionsUsed": [
    "KHR_materials_specular"
  ],
  "images": [
    {
      "uri": "textures/fire_body_emissive.png"
    },
    {
      "uri": "textures/fire_corn_baseColor.png"
    }
  ],
  "materials": [
    {
      "doubleSided": true,
      "emissiveFactor": [
        1.0,
        1.0,
        1.0
      ],
      "emissiveTexture": {
        "index": 0
      },
      "extensions": {
        "KHR_materials_specular": {
          "specularColorFactor": [
            1.0,
            1.0,
            1.0
          ],
          "specularFactor": 0.0
        }
      },
      "name": "fire_body",
      "pbrMetallicRoughness": {
        "baseColorFactor": [
          0.0,
          0.0,
          0.0,
          1.0
        ],
        "metallicFactor": 0.0,
        "roughnessFactor": 0.0
      }
    },
    {
      "extensions": {
        "KHR_materials_specular": {
          "specularColorFactor": [
            1.0,
            1.0,
            1.0
          ],
          "specularFactor": 0.0
        }
      },
      "name": "outline",
      "pbrMetallicRoughness": {
        "baseColorFactor": [
          0.0,
          0.0,
          0.0,
          1.0
        ],
        "metallicFactor": 0.0
      }
    },
    {
      "emissiveFactor": [
        0.6006393798246835,
        0.6006393798246835,
        0.6006393798246835
      ],
      "emissiveTexture": {
        "index": 1
      },
      "extensions": {
        "KHR_materials_specular": {
          "specularColorFactor": [
            1.0,
            1.0,
            1.0
          ],
          "specularFactor": 0.0
        }
      },
      "name": "fire_corn",
      "pbrMetallicRoughness": {
        "baseColorTexture": {
          "index": 1
        },
        "metallicFactor": 0.0
      }
    }
  ],
  "meshes": [
    {
      "name": "body.001_fire body_0",
      "primitives": [
        {
          "attributes": {
            "NORMAL": 1,
            "POSITION": 0,
            "TEXCOORD_0": 2
          },
          "indices": 3,
          "material": 0,
          "mode": 4
        }
      ]
    },
    {
      "name": "body.001_outline_0",
      "primitives": [
        {
          "attributes": {
            "NORMAL": 5,
            "POSITION": 4,
            "TEXCOORD_0": 6
          },
          "indices": 7,
          "material": 1,
          "mode": 4
        }
      ]
    },
    {
      "name": "corn.001_fire corn_0",
      "primitives": [
        {
          "attributes": {
            "NORMAL": 9,
            "POSITION": 8,
            "TEXCOORD_0": 10
          },
          "indices": 11,
          "material": 2,
          "mode": 4
        }
      ]
    },
    {
      "name": "corn.001_outline_0",
      "primitives": [
        {
          "attributes": {
            "NORMAL": 13,
            "POSITION": 12,
            "TEXCOORD_0": 14
          },
          "indices": 15,
          "material": 1,
          "mode": 4
        }
      ]
    }
  ],
  "nodes": [
    {
      "children": [
        1
      ],
      "matrix": [
        1.0,
        0.0,
        0.0,
        0.0,
        0.0,
        2.220446049250313e-16,
        -1.0,
        0.0,
        0.0,
        1.0,
        2.220446049250313e-16,
        0.0,
        0.0,
        0.0,
        0.0,
        1.0
      ],
      "name": "Sketchfab_model"
    },
    {
      "children": [
        2
      ],
      "matrix": [
        0.009999999776482582,
        0.0,
        0.0,
        0.0,
        0.0,
        0.0,
        0.009999999776482582,
        0.0,
        0.0,
        -0.009999999776482582,
        0.0,
        0.0,
        0.0,
        0.0,
        0.0,
        1.0
      ],
      "name": "586239148d414c4289da479147bb464a.fbx"
    },
    {
      "children": [
        3,
        6
      ],
      "name": "RootNode"
    },
    {
      "children": [
        4,
        5
      ],
      "matrix": [
        100.0,
        0.0,
        0.0,
        0.0,
        0.0,
        -1.629206793918314e-05,
        -99.99999999999868,
        0.0,
        0.0,
        99.99999999999868,
        -1.629206793918314e-05,
        0.0,
        0.0,
        70.75886535644531,
        0.0,
        1.0
      ],
      "name": "body.001"
    },
    {
      "mesh": 0,
      "name": "body.001_fire body_0"
    },
    {
      "mesh": 1,
      "name": "body.001_outline_0"
    },
    {
      "children": [
        7,
        8
      ],
      "matrix": [
        100.0,
        0.0,
        0.0,
        0.0,
        -0.0,
        -1.629206793918314e-05,
        -99.99999999999868,
        0.0,
        0.0,
        99.99999999999868,
        -1.629206793918314e-05,
        0.0,
        -32.42361068725586,
        119.0738296508789,
        37.665252685546875,
        1.0
      ],
      "name": "corn.001"
    },
    {
      "mesh": 2,
      "name": "corn.001_fire corn_0"
    },
    {
      "mesh": 3,
      "name": "corn.001_outline_0"
    }
  ],
  "samplers": [
    {
      "magFilter": 9729,
      "minFilter": 9987,
      "wrapS": 10497,
      "wrapT": 10497
    }
  ],
  "scene": 0,
  "scenes": [
    {
      "name": "Sketchfab_Scene",
      "nodes": [
        0
      ]
    }
  ],
  "textures": [
    {
      "sampler": 0,
      "source": 0
    },
    {
      "sampler": 0,
      "source": 1
    }
  ]
}
